<svg width="231" height="111" viewBox="0 0 231 111" fill="none" xmlns="http://www.w3.org/2000/svg">
<path d="M170.659 16.875C168.275 16.875 166.349 16.0953 164.882 14.5359C163.461 12.9208 162.75 10.9158 162.75 8.52104C162.75 6.07055 163.461 4.03775 164.882 2.42265C166.349 0.807551 168.275 0 170.659 0C172.998 0 174.878 0.807551 176.299 2.42265C177.766 4.03775 178.5 6.07055 178.5 8.52104C178.5 10.9158 177.766 12.9208 176.299 14.5359C174.878 16.0953 172.998 16.875 170.659 16.875Z" fill="#FFA800" fill-opacity="0.5"/>
<path d="M40.3589 68.6569H19.9344L16.8298 78.75H0L20.9964 16.875H39.4602L60.375 78.75H43.4635L40.3589 68.6569ZM36.3557 55.492L30.1466 35.4814L24.0193 55.492H36.3557Z" fill="#00CEC9"/>
<path d="M101.062 78.75H84.5166L62.4834 44.1702V78.75H45.9375V16.875H62.4834L84.5166 51.8936V16.875H101.062V78.75Z" fill="#FF4D00" fill-opacity="0.51"/>
<path d="M108.518 16.875C114.672 16.875 120.051 18.1915 124.653 20.8245C129.311 23.3989 132.887 27.0266 135.382 31.7074C137.877 36.3883 139.125 41.742 139.125 47.7686C139.125 53.7367 137.85 59.0612 135.299 63.742C132.804 68.4229 129.227 72.109 124.57 74.8005C119.968 77.4335 114.617 78.75 108.518 78.75H85.3125V16.875H108.518ZM107.27 63.5665C112.039 63.5665 115.781 62.1915 118.498 59.4415C121.215 56.6915 122.574 52.8005 122.574 47.7686C122.574 42.6782 121.215 38.758 118.498 36.008C115.781 33.1995 112.039 31.7952 107.27 31.7952H101.614V63.5665H107.27Z" fill="#E65555" fill-opacity="0.5"/>
<path d="M152.66 78.75L141.176 55.9308H139.453V78.75H123.375V16.875H148.723C153.371 16.875 157.309 17.7527 160.535 19.508C163.762 21.2048 166.195 23.5745 167.836 26.617C169.477 29.6011 170.297 32.9654 170.297 36.7101C170.297 40.9229 169.203 44.6383 167.016 47.8564C164.883 51.016 161.738 53.2686 157.582 54.6144L170.625 78.75H152.66ZM139.453 44.1702H147.41C149.598 44.1702 151.238 43.6144 152.332 42.5027C153.426 41.391 153.973 39.7819 153.973 37.6755C153.973 35.6862 153.398 34.1356 152.25 33.0239C151.156 31.8537 149.543 31.2686 147.41 31.2686H139.453V44.1702Z" fill="#487FCE" fill-opacity="0.5"/>
<path d="M178.5 16.875V78.75H162.75V16.875C165.371 20.1887 167.036 21.471 170.625 21.7969C175.78 21.2424 176.445 19.4676 178.5 16.875Z" fill="#FFA800" fill-opacity="0.5"/>
<path d="M210.984 68.6569H190.559L187.455 78.75H170.625L191.621 16.875H210.085L231 78.75H214.088L210.984 68.6569ZM206.981 55.492L200.772 35.4814L194.644 55.492H206.981Z" fill="#1B750C" fill-opacity="0.5"/>
<path d="M0.34 94.75L2.86 87.39H3.88L6.4 94.75H5.58L4.84 92.65H1.88L1.16 94.75H0.34ZM2.08 91.93H4.64L3.37 88.09L2.08 91.93ZM7.49828 97.12V89.41H8.13828L8.28828 89.96C8.40828 89.8733 8.56161 89.7833 8.74828 89.69C8.94161 89.59 9.14828 89.5067 9.36828 89.44C9.59495 89.3733 9.81828 89.34 10.0383 89.34C10.3849 89.34 10.6783 89.4167 10.9183 89.57C11.1649 89.7167 11.3649 89.9167 11.5183 90.17C11.6716 90.4233 11.7816 90.7133 11.8483 91.04C11.9149 91.3667 11.9483 91.71 11.9483 92.07C11.9483 92.67 11.8783 93.1767 11.7383 93.59C11.6049 93.9967 11.3983 94.3033 11.1183 94.51C10.8383 94.7167 10.4783 94.82 10.0383 94.82C9.73828 94.82 9.43495 94.7733 9.12828 94.68C8.82828 94.58 8.54828 94.4567 8.28828 94.31V97.12H7.49828ZM9.81828 94.15C10.0716 94.15 10.2983 94.0867 10.4983 93.96C10.6983 93.8333 10.8583 93.62 10.9783 93.32C11.0983 93.0133 11.1583 92.5967 11.1583 92.07C11.1583 91.57 11.0949 91.17 10.9683 90.87C10.8416 90.5633 10.6783 90.3433 10.4783 90.21C10.2783 90.07 10.0583 90 9.81828 90C9.51161 90 9.22828 90.05 8.96828 90.15C8.71495 90.2433 8.48828 90.3433 8.28828 90.45V93.72C8.52161 93.8467 8.76828 93.95 9.02828 94.03C9.29495 94.11 9.55828 94.15 9.81828 94.15ZM13.2795 97.12V89.41H13.9195L14.0695 89.96C14.1895 89.8733 14.3429 89.7833 14.5295 89.69C14.7229 89.59 14.9295 89.5067 15.1495 89.44C15.3762 89.3733 15.5995 89.34 15.8195 89.34C16.1662 89.34 16.4595 89.4167 16.6995 89.57C16.9462 89.7167 17.1462 89.9167 17.2995 90.17C17.4529 90.4233 17.5629 90.7133 17.6295 91.04C17.6962 91.3667 17.7295 91.71 17.7295 92.07C17.7295 92.67 17.6595 93.1767 17.5195 93.59C17.3862 93.9967 17.1795 94.3033 16.8995 94.51C16.6195 94.7167 16.2595 94.82 15.8195 94.82C15.5195 94.82 15.2162 94.7733 14.9095 94.68C14.6095 94.58 14.3295 94.4567 14.0695 94.31V97.12H13.2795ZM15.5995 94.15C15.8529 94.15 16.0795 94.0867 16.2795 93.96C16.4795 93.8333 16.6395 93.62 16.7595 93.32C16.8795 93.0133 16.9395 92.5967 16.9395 92.07C16.9395 91.57 16.8762 91.17 16.7495 90.87C16.6229 90.5633 16.4595 90.3433 16.2595 90.21C16.0595 90.07 15.8395 90 15.5995 90C15.2929 90 15.0095 90.05 14.7495 90.15C14.4962 90.2433 14.2695 90.3433 14.0695 90.45V93.72C14.3029 93.8467 14.5495 93.95 14.8095 94.03C15.0762 94.11 15.3395 94.15 15.5995 94.15ZM19.0608 94.75V89.41H19.6608L19.8508 90.34C20.0908 90.0533 20.3574 89.8167 20.6508 89.63C20.9508 89.4433 21.2941 89.35 21.6808 89.35C21.7741 89.35 21.8608 89.3533 21.9408 89.36C22.0274 89.3667 22.1074 89.38 22.1808 89.4V90.21C22.0941 90.1967 22.0008 90.1867 21.9008 90.18C21.8008 90.1667 21.7008 90.16 21.6008 90.16C21.3541 90.16 21.1341 90.19 20.9408 90.25C20.7474 90.31 20.5641 90.4 20.3908 90.52C20.2174 90.64 20.0374 90.7867 19.8508 90.96V94.75H19.0608ZM25.2219 94.81C24.6619 94.81 24.2185 94.7267 23.8919 94.56C23.5719 94.3933 23.3419 94.11 23.2019 93.71C23.0619 93.31 22.9919 92.7633 22.9919 92.07C22.9919 91.3633 23.0619 90.8133 23.2019 90.42C23.3485 90.02 23.5852 89.74 23.9119 89.58C24.2385 89.42 24.6785 89.34 25.2319 89.34C25.7052 89.34 26.0885 89.3933 26.3819 89.5C26.6819 89.6067 26.9019 89.79 27.0419 90.05C27.1885 90.3033 27.2619 90.6567 27.2619 91.11C27.2619 91.4233 27.1985 91.6767 27.0719 91.87C26.9519 92.0567 26.7752 92.1933 26.5419 92.28C26.3152 92.36 26.0452 92.4 25.7319 92.4H23.7819C23.7885 92.8333 23.8352 93.1833 23.9219 93.45C24.0085 93.71 24.1652 93.9 24.3919 94.02C24.6252 94.1333 24.9652 94.19 25.4119 94.19H27.1319V94.67C26.8252 94.71 26.5252 94.7433 26.2319 94.77C25.9385 94.7967 25.6019 94.81 25.2219 94.81ZM23.7719 91.88H25.6719C25.9719 91.88 26.1919 91.8267 26.3319 91.72C26.4785 91.6067 26.5519 91.4067 26.5519 91.12C26.5519 90.8133 26.5052 90.5767 26.4119 90.41C26.3252 90.2367 26.1852 90.1167 25.9919 90.05C25.8052 89.9767 25.5519 89.94 25.2319 89.94C24.8585 89.94 24.5652 89.9967 24.3519 90.11C24.1385 90.2167 23.9885 90.41 23.9019 90.69C23.8152 90.97 23.7719 91.3667 23.7719 91.88ZM28.592 94.75V89.41H29.212L29.382 90C29.6354 89.82 29.932 89.6633 30.272 89.53C30.612 89.39 30.9654 89.32 31.332 89.32C31.7254 89.32 32.042 89.4033 32.282 89.57C32.522 89.7367 32.6987 89.9567 32.812 90.23C32.9254 90.5033 32.982 90.8 32.982 91.12V94.75H32.192V91.21C32.192 90.9833 32.1454 90.7833 32.052 90.61C31.9654 90.43 31.8387 90.29 31.672 90.19C31.512 90.09 31.312 90.04 31.072 90.04C30.852 90.04 30.6454 90.0633 30.452 90.11C30.2654 90.15 30.0854 90.21 29.912 90.29C29.7454 90.3633 29.5687 90.4533 29.382 90.56V94.75H28.592ZM36.2409 94.75C35.8943 94.75 35.6076 94.6933 35.3809 94.58C35.1543 94.4667 34.9876 94.2833 34.8809 94.03C34.7743 93.7767 34.7243 93.44 34.7309 93.02L34.7609 90.06H33.9109V89.55L34.7709 89.41L34.9009 87.92H35.5109V89.41H37.0509V90.06H35.5109V93.02C35.5109 93.2533 35.5343 93.44 35.5809 93.58C35.6343 93.72 35.7009 93.8267 35.7809 93.9C35.8676 93.9733 35.9576 94.0267 36.0509 94.06C36.1443 94.0867 36.2343 94.1033 36.3209 94.11L36.9709 94.17V94.75H36.2409ZM38.2628 88.46C38.1561 88.46 38.1028 88.4067 38.1028 88.3V87.52C38.1028 87.4133 38.1561 87.36 38.2628 87.36H38.8228C38.8761 87.36 38.9128 87.3767 38.9328 87.41C38.9595 87.4367 38.9728 87.4733 38.9728 87.52V88.3C38.9728 88.4067 38.9228 88.46 38.8228 88.46H38.2628ZM38.1428 94.75V89.41H38.9328V94.75H38.1428ZM42.2973 94.81C42.1639 94.81 42.0006 94.8067 41.8073 94.8C41.6139 94.7933 41.4106 94.7833 41.1973 94.77C40.9906 94.7567 40.8006 94.7433 40.6273 94.73C40.4606 94.71 40.3306 94.69 40.2373 94.67V94.19H42.4273C42.6473 94.19 42.8373 94.1733 42.9973 94.14C43.1573 94.1067 43.2806 94.0333 43.3673 93.92C43.4606 93.8067 43.5073 93.6367 43.5073 93.41V93.17C43.5073 92.9367 43.4306 92.7567 43.2773 92.63C43.1239 92.4967 42.8773 92.43 42.5373 92.43H41.7873C41.4739 92.43 41.1939 92.39 40.9473 92.31C40.7073 92.23 40.5206 92.0933 40.3873 91.9C40.2539 91.7067 40.1873 91.44 40.1873 91.1V90.82C40.1873 90.4867 40.2506 90.2133 40.3773 90C40.5106 89.7867 40.7139 89.6267 40.9873 89.52C41.2673 89.4133 41.6273 89.36 42.0673 89.36C42.2539 89.36 42.4673 89.3667 42.7073 89.38C42.9539 89.3933 43.1939 89.4133 43.4273 89.44C43.6606 89.46 43.8506 89.4833 43.9973 89.51V89.99H41.9373C41.5973 89.99 41.3339 90.0467 41.1473 90.16C40.9673 90.2733 40.8773 90.4933 40.8773 90.82V91.04C40.8773 91.2467 40.9206 91.4033 41.0073 91.51C41.0939 91.61 41.2139 91.6767 41.3673 91.71C41.5273 91.7433 41.7106 91.76 41.9173 91.76H42.6773C43.1639 91.76 43.5406 91.8733 43.8073 92.1C44.0739 92.3267 44.2073 92.6533 44.2073 93.08V93.45C44.2073 93.81 44.1239 94.09 43.9573 94.29C43.7973 94.4833 43.5739 94.62 43.2873 94.7C43.0073 94.7733 42.6773 94.81 42.2973 94.81ZM47.2973 94.81C47.1639 94.81 47.0006 94.8067 46.8073 94.8C46.6139 94.7933 46.4106 94.7833 46.1973 94.77C45.9906 94.7567 45.8006 94.7433 45.6273 94.73C45.4606 94.71 45.3306 94.69 45.2373 94.67V94.19H47.4273C47.6473 94.19 47.8373 94.1733 47.9973 94.14C48.1573 94.1067 48.2806 94.0333 48.3673 93.92C48.4606 93.8067 48.5073 93.6367 48.5073 93.41V93.17C48.5073 92.9367 48.4306 92.7567 48.2773 92.63C48.1239 92.4967 47.8773 92.43 47.5373 92.43H46.7873C46.4739 92.43 46.1939 92.39 45.9473 92.31C45.7073 92.23 45.5206 92.0933 45.3873 91.9C45.2539 91.7067 45.1873 91.44 45.1873 91.1V90.82C45.1873 90.4867 45.2506 90.2133 45.3773 90C45.5106 89.7867 45.7139 89.6267 45.9873 89.52C46.2673 89.4133 46.6273 89.36 47.0673 89.36C47.2539 89.36 47.4673 89.3667 47.7073 89.38C47.9539 89.3933 48.1939 89.4133 48.4273 89.44C48.6606 89.46 48.8506 89.4833 48.9973 89.51V89.99H46.9373C46.5973 89.99 46.3339 90.0467 46.1473 90.16C45.9673 90.2733 45.8773 90.4933 45.8773 90.82V91.04C45.8773 91.2467 45.9206 91.4033 46.0073 91.51C46.0939 91.61 46.2139 91.6767 46.3673 91.71C46.5273 91.7433 46.7106 91.76 46.9173 91.76H47.6773C48.1639 91.76 48.5406 91.8733 48.8073 92.1C49.0739 92.3267 49.2073 92.6533 49.2073 93.08V93.45C49.2073 93.81 49.1239 94.09 48.9573 94.29C48.7973 94.4833 48.5739 94.62 48.2873 94.7C48.0073 94.7733 47.6773 94.81 47.2973 94.81ZM51.4973 94.81C51.1039 94.81 50.7806 94.6933 50.5273 94.46C50.2739 94.2267 50.1473 93.8967 50.1473 93.47V93.09C50.1473 92.67 50.2839 92.33 50.5573 92.07C50.8373 91.81 51.2573 91.68 51.8173 91.68H53.6273V91.02C53.6273 90.8 53.5873 90.6133 53.5073 90.46C53.4339 90.3 53.2973 90.1767 53.0973 90.09C52.9039 90.0033 52.6206 89.96 52.2473 89.96H50.5873V89.49C50.8206 89.45 51.0906 89.4133 51.3973 89.38C51.7106 89.3467 52.0773 89.33 52.4973 89.33C52.9306 89.3233 53.2906 89.3767 53.5773 89.49C53.8639 89.6033 54.0739 89.7833 54.2073 90.03C54.3473 90.27 54.4173 90.5867 54.4173 90.98V94.75H53.8073L53.6573 94.14C53.6306 94.1667 53.5473 94.2133 53.4073 94.28C53.2739 94.3467 53.1006 94.4233 52.8873 94.51C52.6806 94.59 52.4539 94.66 52.2073 94.72C51.9673 94.78 51.7306 94.81 51.4973 94.81ZM51.8273 94.22C51.9473 94.2267 52.0839 94.2133 52.2373 94.18C52.3906 94.1467 52.5473 94.11 52.7073 94.07C52.8673 94.0233 53.0139 93.9767 53.1473 93.93C53.2873 93.8833 53.4006 93.8433 53.4873 93.81C53.5739 93.7767 53.6206 93.76 53.6273 93.76V92.08L51.9973 92.15C51.6173 92.1633 51.3439 92.2567 51.1773 92.43C51.0173 92.6033 50.9373 92.8267 50.9373 93.1V93.34C50.9373 93.5533 50.9806 93.7267 51.0673 93.86C51.1606 93.9867 51.2739 94.0767 51.4073 94.13C51.5473 94.1833 51.6873 94.2133 51.8273 94.22ZM57.2165 97.2C56.8698 97.2 56.5632 97.15 56.2965 97.05C56.0365 96.9567 55.8298 96.81 55.6765 96.61C55.5298 96.4167 55.4565 96.1733 55.4565 95.88V95.64C55.4565 95.3333 55.5398 95.0767 55.7065 94.87C55.8798 94.6633 56.0965 94.51 56.3565 94.41C56.6165 94.3033 56.8832 94.25 57.1565 94.25L57.3565 94.57C57.1565 94.57 56.9698 94.6033 56.7965 94.67C56.6232 94.73 56.4798 94.83 56.3665 94.97C56.2598 95.11 56.2065 95.29 56.2065 95.51V95.73C56.2065 96.05 56.3132 96.2767 56.5265 96.41C56.7398 96.55 57.0298 96.62 57.3965 96.62H58.6365C59.0365 96.62 59.3498 96.5433 59.5765 96.39C59.8098 96.2367 59.9265 95.9967 59.9265 95.67V95.47C59.9265 95.2833 59.8898 95.1233 59.8165 94.99C59.7432 94.8567 59.6198 94.7533 59.4465 94.68C59.2798 94.6067 59.0432 94.57 58.7365 94.57H57.1265C56.7132 94.57 56.3898 94.4833 56.1565 94.31C55.9298 94.13 55.8165 93.9 55.8165 93.62C55.8165 93.3533 55.8932 93.1433 56.0465 92.99C56.2065 92.8367 56.4298 92.73 56.7165 92.67C56.4698 92.57 56.2765 92.4367 56.1365 92.27C55.9965 92.0967 55.8998 91.9133 55.8465 91.72C55.7932 91.52 55.7665 91.32 55.7665 91.12C55.7665 90.7067 55.8498 90.3733 56.0165 90.12C56.1832 89.8667 56.4198 89.6833 56.7265 89.57C57.0398 89.4567 57.4065 89.4 57.8265 89.4H60.6765V89.85L59.4765 89.95C59.5632 90.01 59.6598 90.09 59.7665 90.19C59.8732 90.2833 59.9632 90.42 60.0365 90.6C60.1165 90.7733 60.1565 91.0133 60.1565 91.32C60.1565 91.5933 60.0965 91.8533 59.9765 92.1C59.8632 92.3467 59.6698 92.55 59.3965 92.71C59.1232 92.8633 58.7465 92.94 58.2665 92.94H57.4165C57.1365 92.94 56.9132 92.9833 56.7465 93.07C56.5865 93.15 56.5065 93.2967 56.5065 93.51C56.5065 93.67 56.5665 93.7833 56.6865 93.85C56.8065 93.9167 56.9332 93.95 57.0665 93.95H58.8365C59.2498 93.95 59.5898 94.0033 59.8565 94.11C60.1298 94.2167 60.3332 94.38 60.4665 94.6C60.6065 94.8133 60.6765 95.0867 60.6765 95.42V95.64C60.6765 96.1267 60.5098 96.5067 60.1765 96.78C59.8498 97.06 59.3598 97.2 58.7065 97.2H57.2165ZM57.5865 92.33H58.1865C58.5265 92.33 58.7832 92.28 58.9565 92.18C59.1365 92.0733 59.2598 91.9367 59.3265 91.77C59.3932 91.6033 59.4265 91.4233 59.4265 91.23C59.4265 90.93 59.3765 90.6933 59.2765 90.52C59.1832 90.34 59.0498 90.2133 58.8765 90.14C58.7032 90.06 58.5032 90.02 58.2765 90.02H57.7065C57.3265 90.02 57.0265 90.1067 56.8065 90.28C56.5932 90.4467 56.4865 90.74 56.4865 91.16C56.4865 91.5733 56.5832 91.8733 56.7765 92.06C56.9765 92.24 57.2465 92.33 57.5865 92.33ZM63.7082 94.81C63.1482 94.81 62.7049 94.7267 62.3782 94.56C62.0582 94.3933 61.8282 94.11 61.6882 93.71C61.5482 93.31 61.4782 92.7633 61.4782 92.07C61.4782 91.3633 61.5482 90.8133 61.6882 90.42C61.8349 90.02 62.0715 89.74 62.3982 89.58C62.7249 89.42 63.1649 89.34 63.7182 89.34C64.1915 89.34 64.5749 89.3933 64.8682 89.5C65.1682 89.6067 65.3882 89.79 65.5282 90.05C65.6749 90.3033 65.7482 90.6567 65.7482 91.11C65.7482 91.4233 65.6849 91.6767 65.5582 91.87C65.4382 92.0567 65.2615 92.1933 65.0282 92.28C64.8015 92.36 64.5315 92.4 64.2182 92.4H62.2682C62.2749 92.8333 62.3215 93.1833 62.4082 93.45C62.4949 93.71 62.6515 93.9 62.8782 94.02C63.1115 94.1333 63.4515 94.19 63.8982 94.19H65.6182V94.67C65.3115 94.71 65.0115 94.7433 64.7182 94.77C64.4249 94.7967 64.0882 94.81 63.7082 94.81ZM62.2582 91.88H64.1582C64.4582 91.88 64.6782 91.8267 64.8182 91.72C64.9649 91.6067 65.0382 91.4067 65.0382 91.12C65.0382 90.8133 64.9915 90.5767 64.8982 90.41C64.8115 90.2367 64.6715 90.1167 64.4782 90.05C64.2915 89.9767 64.0382 89.94 63.7182 89.94C63.3449 89.94 63.0515 89.9967 62.8382 90.11C62.6249 90.2167 62.4749 90.41 62.3882 90.69C62.3015 90.97 62.2582 91.3667 62.2582 91.88ZM69.9237 94.75V87.39H70.5737L74.4137 93.38V87.39H75.2037V94.75H74.5537L70.7137 88.76V94.75H69.9237ZM78.1898 94.81C77.6765 94.81 77.2798 94.6767 76.9998 94.41C76.7265 94.1433 76.5898 93.73 76.5898 93.17V89.41H77.3798V92.97C77.3798 93.4167 77.4798 93.72 77.6798 93.88C77.8865 94.0333 78.1732 94.11 78.5398 94.11C78.8532 94.11 79.1398 94.0667 79.3998 93.98C79.6598 93.8867 79.9265 93.76 80.1998 93.6V89.41H80.9898V94.75H80.3698L80.1998 94.16C79.9265 94.3333 79.6165 94.4867 79.2698 94.62C78.9298 94.7467 78.5698 94.81 78.1898 94.81ZM82.4788 94.75V89.41H83.0988L83.2688 90C83.5354 89.8133 83.8321 89.6533 84.1588 89.52C84.4921 89.3867 84.8621 89.32 85.2688 89.32C85.6021 89.32 85.8854 89.3967 86.1188 89.55C86.3588 89.6967 86.5388 89.8833 86.6588 90.11C86.8254 89.99 87.0254 89.87 87.2588 89.75C87.4988 89.63 87.7521 89.53 88.0188 89.45C88.2921 89.3633 88.5554 89.32 88.8088 89.32C89.1954 89.32 89.5121 89.4033 89.7588 89.57C90.0054 89.73 90.1854 89.95 90.2988 90.23C90.4188 90.5033 90.4788 90.81 90.4788 91.15V94.75H89.6888V91.21C89.6888 90.9833 89.6421 90.7833 89.5488 90.61C89.4621 90.43 89.3354 90.29 89.1688 90.19C89.0021 90.09 88.7988 90.04 88.5588 90.04C88.2588 90.04 87.9521 90.0967 87.6388 90.21C87.3254 90.3233 87.0354 90.46 86.7687 90.62C86.8021 90.72 86.8254 90.82 86.8388 90.92C86.8588 91.0133 86.8688 91.1133 86.8688 91.22V94.75H86.0788V91.21C86.0788 90.9833 86.0321 90.7833 85.9388 90.61C85.8521 90.43 85.7254 90.29 85.5588 90.19C85.3988 90.09 85.1988 90.04 84.9588 90.04C84.7388 90.04 84.5321 90.0633 84.3388 90.11C84.1521 90.15 83.9721 90.21 83.7988 90.29C83.6321 90.3633 83.4554 90.4533 83.2688 90.56V94.75H82.4788ZM94.0012 94.81C93.4412 94.81 92.9978 94.7267 92.6712 94.56C92.3512 94.3933 92.1212 94.11 91.9812 93.71C91.8412 93.31 91.7712 92.7633 91.7712 92.07C91.7712 91.3633 91.8412 90.8133 91.9812 90.42C92.1278 90.02 92.3645 89.74 92.6912 89.58C93.0178 89.42 93.4578 89.34 94.0112 89.34C94.4845 89.34 94.8678 89.3933 95.1612 89.5C95.4612 89.6067 95.6812 89.79 95.8212 90.05C95.9678 90.3033 96.0412 90.6567 96.0412 91.11C96.0412 91.4233 95.9778 91.6767 95.8512 91.87C95.7312 92.0567 95.5545 92.1933 95.3212 92.28C95.0945 92.36 94.8245 92.4 94.5112 92.4H92.5612C92.5678 92.8333 92.6145 93.1833 92.7012 93.45C92.7878 93.71 92.9445 93.9 93.1712 94.02C93.4045 94.1333 93.7445 94.19 94.1912 94.19H95.9112V94.67C95.6045 94.71 95.3045 94.7433 95.0112 94.77C94.7178 94.7967 94.3812 94.81 94.0012 94.81ZM92.5512 91.88H94.4512C94.7512 91.88 94.9712 91.8267 95.1112 91.72C95.2578 91.6067 95.3312 91.4067 95.3312 91.12C95.3312 90.8133 95.2845 90.5767 95.1912 90.41C95.1045 90.2367 94.9645 90.1167 94.7712 90.05C94.5845 89.9767 94.3312 89.94 94.0112 89.94C93.6378 89.94 93.3445 89.9967 93.1312 90.11C92.9178 90.2167 92.7678 90.41 92.6812 90.69C92.5945 90.97 92.5512 91.3667 92.5512 91.88ZM93.5812 88.44L94.6212 87.08H95.2912L94.0412 88.44H93.5812ZM97.3713 94.75V89.41H97.9713L98.1613 90.34C98.4013 90.0533 98.668 89.8167 98.9613 89.63C99.2613 89.4433 99.6047 89.35 99.9913 89.35C100.085 89.35 100.171 89.3533 100.251 89.36C100.338 89.3667 100.418 89.38 100.491 89.4V90.21C100.405 90.1967 100.311 90.1867 100.211 90.18C100.111 90.1667 100.011 90.16 99.9113 90.16C99.6647 90.16 99.4447 90.19 99.2513 90.25C99.058 90.31 98.8747 90.4 98.7013 90.52C98.528 90.64 98.348 90.7867 98.1613 90.96V94.75H97.3713ZM101.612 88.46C101.506 88.46 101.452 88.4067 101.452 88.3V87.52C101.452 87.4133 101.506 87.36 101.612 87.36H102.172C102.226 87.36 102.262 87.3767 102.282 87.41C102.309 87.4367 102.322 87.4733 102.322 87.52V88.3C102.322 88.4067 102.272 88.46 102.172 88.46H101.612ZM101.492 94.75V89.41H102.282V94.75H101.492ZM107.277 97.12V94.21C107.024 94.3833 106.74 94.5267 106.427 94.64C106.114 94.7533 105.81 94.81 105.517 94.81C105.05 94.81 104.677 94.71 104.397 94.51C104.117 94.3033 103.917 93.9967 103.797 93.59C103.677 93.1833 103.617 92.6767 103.617 92.07C103.617 91.4567 103.687 90.9467 103.827 90.54C103.967 90.1333 104.184 89.8333 104.477 89.64C104.777 89.44 105.157 89.34 105.617 89.34C105.937 89.34 106.247 89.3467 106.547 89.36C106.847 89.3733 107.127 89.3933 107.387 89.42C107.647 89.44 107.874 89.46 108.067 89.48V97.12H107.277ZM105.707 94.16C105.98 94.16 106.247 94.12 106.507 94.04C106.774 93.96 107.03 93.85 107.277 93.71V89.96H105.797C105.444 89.96 105.167 90.0467 104.967 90.22C104.767 90.3933 104.624 90.6367 104.537 90.95C104.45 91.2633 104.407 91.63 104.407 92.05C104.407 92.55 104.45 92.9567 104.537 93.27C104.63 93.5767 104.77 93.8033 104.957 93.95C105.144 94.09 105.394 94.16 105.707 94.16ZM111.149 94.81C110.635 94.81 110.239 94.6767 109.959 94.41C109.685 94.1433 109.549 93.73 109.549 93.17V89.41H110.339V92.97C110.339 93.4167 110.439 93.72 110.639 93.88C110.845 94.0333 111.132 94.11 111.499 94.11C111.812 94.11 112.099 94.0667 112.359 93.98C112.619 93.8867 112.885 93.76 113.159 93.6V89.41H113.949V94.75H113.329L113.159 94.16C112.885 94.3333 112.575 94.4867 112.229 94.62C111.889 94.7467 111.529 94.81 111.149 94.81ZM117.478 94.81C116.918 94.81 116.474 94.7267 116.148 94.56C115.828 94.3933 115.598 94.11 115.458 93.71C115.318 93.31 115.248 92.7633 115.248 92.07C115.248 91.3633 115.318 90.8133 115.458 90.42C115.604 90.02 115.841 89.74 116.168 89.58C116.494 89.42 116.934 89.34 117.488 89.34C117.961 89.34 118.344 89.3933 118.638 89.5C118.938 89.6067 119.158 89.79 119.298 90.05C119.444 90.3033 119.518 90.6567 119.518 91.11C119.518 91.4233 119.454 91.6767 119.328 91.87C119.208 92.0567 119.031 92.1933 118.798 92.28C118.571 92.36 118.301 92.4 117.988 92.4H116.038C116.044 92.8333 116.091 93.1833 116.178 93.45C116.264 93.71 116.421 93.9 116.648 94.02C116.881 94.1333 117.221 94.19 117.668 94.19H119.388V94.67C119.081 94.71 118.781 94.7433 118.488 94.77C118.194 94.7967 117.858 94.81 117.478 94.81ZM116.028 91.88H117.928C118.228 91.88 118.448 91.8267 118.588 91.72C118.734 91.6067 118.808 91.4067 118.808 91.12C118.808 90.8133 118.761 90.5767 118.668 90.41C118.581 90.2367 118.441 90.1167 118.248 90.05C118.061 89.9767 117.808 89.94 117.488 89.94C117.114 89.94 116.821 89.9967 116.608 90.11C116.394 90.2167 116.244 90.41 116.158 90.69C116.071 90.97 116.028 91.3667 116.028 91.88ZM125.133 94.81C124.76 94.81 124.427 94.73 124.133 94.57C123.84 94.4033 123.607 94.1767 123.433 93.89C123.267 93.5967 123.183 93.2533 123.183 92.86C123.183 92.5133 123.26 92.18 123.413 91.86C123.567 91.54 123.807 91.2433 124.133 90.97L124.793 90.41L124.613 90.14C124.407 89.8467 124.27 89.5867 124.203 89.36C124.137 89.1267 124.103 88.92 124.103 88.74C124.103 88.4133 124.18 88.1533 124.333 87.96C124.493 87.76 124.7 87.62 124.953 87.54C125.213 87.4533 125.5 87.41 125.813 87.41C126.073 87.41 126.307 87.4167 126.513 87.43C126.72 87.4433 126.903 87.46 127.063 87.48C127.23 87.4933 127.383 87.5133 127.523 87.54V88.11H125.943C125.637 88.11 125.383 88.17 125.183 88.29C124.99 88.4033 124.893 88.6 124.893 88.88C124.893 89.0467 124.93 89.2167 125.003 89.39C125.083 89.5633 125.213 89.7733 125.393 90.02L127.383 92.73L128.873 91.34L129.163 91.68L128.473 92.61L127.793 93.26L128.903 94.75H128.043L127.273 93.72L126.933 94.02C126.62 94.3067 126.323 94.51 126.043 94.63C125.763 94.75 125.46 94.81 125.133 94.81ZM125.253 94.07C125.46 94.07 125.663 94.03 125.863 93.95C126.063 93.87 126.28 93.7133 126.513 93.48L126.833 93.18L125.183 90.96L124.663 91.41C124.39 91.6367 124.2 91.8633 124.093 92.09C123.993 92.3167 123.943 92.5467 123.943 92.78C123.943 93.1733 124.06 93.4867 124.293 93.72C124.533 93.9533 124.853 94.07 125.253 94.07ZM132.977 94.75V87.39H135.887C136.334 87.39 136.71 87.4733 137.017 87.64C137.324 87.8 137.57 88.0367 137.757 88.35C137.95 88.6633 138.09 89.05 138.177 89.51C138.264 89.9633 138.307 90.4833 138.307 91.07C138.307 91.8433 138.217 92.5033 138.037 93.05C137.857 93.5967 137.587 94.0167 137.227 94.31C136.867 94.6033 136.42 94.75 135.887 94.75H132.977ZM133.777 94.04H135.827C136.22 94.04 136.54 93.92 136.787 93.68C137.034 93.4333 137.217 93.09 137.337 92.65C137.457 92.2033 137.517 91.6767 137.517 91.07C137.517 90.5233 137.484 90.0633 137.417 89.69C137.35 89.31 137.247 89.0033 137.107 88.77C136.974 88.5367 136.8 88.37 136.587 88.27C136.374 88.1633 136.12 88.11 135.827 88.11H133.777V94.04ZM141.599 94.81C141.039 94.81 140.595 94.7267 140.269 94.56C139.949 94.3933 139.719 94.11 139.579 93.71C139.439 93.31 139.369 92.7633 139.369 92.07C139.369 91.3633 139.439 90.8133 139.579 90.42C139.725 90.02 139.962 89.74 140.289 89.58C140.615 89.42 141.055 89.34 141.609 89.34C142.082 89.34 142.465 89.3933 142.759 89.5C143.059 89.6067 143.279 89.79 143.419 90.05C143.565 90.3033 143.639 90.6567 143.639 91.11C143.639 91.4233 143.575 91.6767 143.449 91.87C143.329 92.0567 143.152 92.1933 142.919 92.28C142.692 92.36 142.422 92.4 142.109 92.4H140.159C140.165 92.8333 140.212 93.1833 140.299 93.45C140.385 93.71 140.542 93.9 140.769 94.02C141.002 94.1333 141.342 94.19 141.789 94.19H143.509V94.67C143.202 94.71 142.902 94.7433 142.609 94.77C142.315 94.7967 141.979 94.81 141.599 94.81ZM140.149 91.88H142.049C142.349 91.88 142.569 91.8267 142.709 91.72C142.855 91.6067 142.929 91.4067 142.929 91.12C142.929 90.8133 142.882 90.5767 142.789 90.41C142.702 90.2367 142.562 90.1167 142.369 90.05C142.182 89.9767 141.929 89.94 141.609 89.94C141.235 89.94 140.942 89.9967 140.729 90.11C140.515 90.2167 140.365 90.41 140.279 90.69C140.192 90.97 140.149 91.3667 140.149 91.88ZM141.179 88.44L142.219 87.08H142.889L141.639 88.44H141.179ZM146.311 94.75L144.301 89.41H145.111L146.771 94.01L148.481 89.41H149.281L147.211 94.75H146.311ZM152.077 94.81C151.517 94.81 151.074 94.7267 150.747 94.56C150.427 94.3933 150.197 94.11 150.057 93.71C149.917 93.31 149.847 92.7633 149.847 92.07C149.847 91.3633 149.917 90.8133 150.057 90.42C150.204 90.02 150.441 89.74 150.767 89.58C151.094 89.42 151.534 89.34 152.087 89.34C152.561 89.34 152.944 89.3933 153.237 89.5C153.537 89.6067 153.757 89.79 153.897 90.05C154.044 90.3033 154.117 90.6567 154.117 91.11C154.117 91.4233 154.054 91.6767 153.927 91.87C153.807 92.0567 153.631 92.1933 153.397 92.28C153.171 92.36 152.901 92.4 152.587 92.4H150.637C150.644 92.8333 150.691 93.1833 150.777 93.45C150.864 93.71 151.021 93.9 151.247 94.02C151.481 94.1333 151.821 94.19 152.267 94.19H153.987V94.67C153.681 94.71 153.381 94.7433 153.087 94.77C152.794 94.7967 152.457 94.81 152.077 94.81ZM150.627 91.88H152.527C152.827 91.88 153.047 91.8267 153.187 91.72C153.334 91.6067 153.407 91.4067 153.407 91.12C153.407 90.8133 153.361 90.5767 153.267 90.41C153.181 90.2367 153.041 90.1167 152.847 90.05C152.661 89.9767 152.407 89.94 152.087 89.94C151.714 89.94 151.421 89.9967 151.207 90.11C150.994 90.2167 150.844 90.41 150.757 90.69C150.671 90.97 150.627 91.3667 150.627 91.88ZM156.848 94.76C156.541 94.76 156.284 94.7067 156.078 94.6C155.871 94.4867 155.714 94.3067 155.608 94.06C155.501 93.8067 155.448 93.4667 155.448 93.04V87.12H156.238V92.94C156.238 93.26 156.268 93.5033 156.328 93.67C156.388 93.83 156.474 93.9433 156.588 94.01C156.701 94.07 156.834 94.11 156.988 94.13L157.528 94.19V94.76H156.848ZM160.507 94.81C160.12 94.81 159.78 94.77 159.487 94.69C159.2 94.61 158.96 94.47 158.767 94.27C158.574 94.07 158.43 93.7933 158.337 93.44C158.244 93.08 158.197 92.6233 158.197 92.07C158.197 91.51 158.244 91.0533 158.337 90.7C158.43 90.34 158.574 90.0633 158.767 89.87C158.96 89.67 159.2 89.5333 159.487 89.46C159.78 89.38 160.12 89.34 160.507 89.34C160.894 89.34 161.23 89.38 161.517 89.46C161.81 89.54 162.054 89.68 162.247 89.88C162.44 90.0733 162.584 90.35 162.677 90.71C162.777 91.0633 162.827 91.5167 162.827 92.07C162.827 92.63 162.777 93.09 162.677 93.45C162.584 93.8033 162.44 94.08 162.247 94.28C162.06 94.4733 161.82 94.61 161.527 94.69C161.234 94.77 160.894 94.81 160.507 94.81ZM160.507 94.16C160.754 94.16 160.97 94.1367 161.157 94.09C161.35 94.0433 161.51 93.95 161.637 93.81C161.764 93.67 161.86 93.46 161.927 93.18C161.994 92.9 162.027 92.53 162.027 92.07C162.027 91.6033 161.994 91.2333 161.927 90.96C161.86 90.6867 161.764 90.48 161.637 90.34C161.51 90.2 161.35 90.1067 161.157 90.06C160.97 90.0133 160.754 89.99 160.507 89.99C160.254 89.99 160.034 90.0133 159.847 90.06C159.66 90.1067 159.504 90.2 159.377 90.34C159.25 90.48 159.154 90.6867 159.087 90.96C159.02 91.2333 158.987 91.6033 158.987 92.07C158.987 92.53 159.02 92.9 159.087 93.18C159.154 93.46 159.25 93.67 159.377 93.81C159.504 93.95 159.66 94.0433 159.847 94.09C160.034 94.1367 160.254 94.16 160.507 94.16ZM164.158 97.12V89.41H164.798L164.948 89.96C165.068 89.8733 165.222 89.7833 165.408 89.69C165.602 89.59 165.808 89.5067 166.028 89.44C166.255 89.3733 166.478 89.34 166.698 89.34C167.045 89.34 167.338 89.4167 167.578 89.57C167.825 89.7167 168.025 89.9167 168.178 90.17C168.332 90.4233 168.442 90.7133 168.508 91.04C168.575 91.3667 168.608 91.71 168.608 92.07C168.608 92.67 168.538 93.1767 168.398 93.59C168.265 93.9967 168.058 94.3033 167.778 94.51C167.498 94.7167 167.138 94.82 166.698 94.82C166.398 94.82 166.095 94.7733 165.788 94.68C165.488 94.58 165.208 94.4567 164.948 94.31V97.12H164.158ZM166.478 94.15C166.732 94.15 166.958 94.0867 167.158 93.96C167.358 93.8333 167.518 93.62 167.638 93.32C167.758 93.0133 167.818 92.5967 167.818 92.07C167.818 91.57 167.755 91.17 167.628 90.87C167.502 90.5633 167.338 90.3433 167.138 90.21C166.938 90.07 166.718 90 166.478 90C166.172 90 165.888 90.05 165.628 90.15C165.375 90.2433 165.148 90.3433 164.948 90.45V93.72C165.182 93.8467 165.428 93.95 165.688 94.03C165.955 94.11 166.218 94.15 166.478 94.15ZM169.94 97.12V89.41H170.58L170.73 89.96C170.85 89.8733 171.003 89.7833 171.19 89.69C171.383 89.59 171.59 89.5067 171.81 89.44C172.036 89.3733 172.26 89.34 172.48 89.34C172.826 89.34 173.12 89.4167 173.36 89.57C173.606 89.7167 173.806 89.9167 173.96 90.17C174.113 90.4233 174.223 90.7133 174.29 91.04C174.356 91.3667 174.39 91.71 174.39 92.07C174.39 92.67 174.32 93.1767 174.18 93.59C174.046 93.9967 173.84 94.3033 173.56 94.51C173.28 94.7167 172.92 94.82 172.48 94.82C172.18 94.82 171.876 94.7733 171.57 94.68C171.27 94.58 170.99 94.4567 170.73 94.31V97.12H169.94ZM172.26 94.15C172.513 94.15 172.74 94.0867 172.94 93.96C173.14 93.8333 173.3 93.62 173.42 93.32C173.54 93.0133 173.6 92.5967 173.6 92.07C173.6 91.57 173.536 91.17 173.41 90.87C173.283 90.5633 173.12 90.3433 172.92 90.21C172.72 90.07 172.5 90 172.26 90C171.953 90 171.67 90.05 171.41 90.15C171.156 90.2433 170.93 90.3433 170.73 90.45V93.72C170.963 93.8467 171.21 93.95 171.47 94.03C171.736 94.11 172 94.15 172.26 94.15ZM177.761 94.81C177.201 94.81 176.758 94.7267 176.431 94.56C176.111 94.3933 175.881 94.11 175.741 93.71C175.601 93.31 175.531 92.7633 175.531 92.07C175.531 91.3633 175.601 90.8133 175.741 90.42C175.888 90.02 176.124 89.74 176.451 89.58C176.778 89.42 177.218 89.34 177.771 89.34C178.244 89.34 178.628 89.3933 178.921 89.5C179.221 89.6067 179.441 89.79 179.581 90.05C179.728 90.3033 179.801 90.6567 179.801 91.11C179.801 91.4233 179.738 91.6767 179.611 91.87C179.491 92.0567 179.314 92.1933 179.081 92.28C178.854 92.36 178.584 92.4 178.271 92.4H176.321C176.328 92.8333 176.374 93.1833 176.461 93.45C176.548 93.71 176.704 93.9 176.931 94.02C177.164 94.1333 177.504 94.19 177.951 94.19H179.671V94.67C179.364 94.71 179.064 94.7433 178.771 94.77C178.478 94.7967 178.141 94.81 177.761 94.81ZM176.311 91.88H178.211C178.511 91.88 178.731 91.8267 178.871 91.72C179.018 91.6067 179.091 91.4067 179.091 91.12C179.091 90.8133 179.044 90.5767 178.951 90.41C178.864 90.2367 178.724 90.1167 178.531 90.05C178.344 89.9767 178.091 89.94 177.771 89.94C177.398 89.94 177.104 89.9967 176.891 90.11C176.678 90.2167 176.528 90.41 176.441 90.69C176.354 90.97 176.311 91.3667 176.311 91.88ZM181.131 94.75V89.41H181.751L181.921 90C182.188 89.8133 182.484 89.6533 182.811 89.52C183.144 89.3867 183.514 89.32 183.921 89.32C184.254 89.32 184.538 89.3967 184.771 89.55C185.011 89.6967 185.191 89.8833 185.311 90.11C185.478 89.99 185.678 89.87 185.911 89.75C186.151 89.63 186.404 89.53 186.671 89.45C186.944 89.3633 187.208 89.32 187.461 89.32C187.848 89.32 188.164 89.4033 188.411 89.57C188.658 89.73 188.838 89.95 188.951 90.23C189.071 90.5033 189.131 90.81 189.131 91.15V94.75H188.341V91.21C188.341 90.9833 188.294 90.7833 188.201 90.61C188.114 90.43 187.988 90.29 187.821 90.19C187.654 90.09 187.451 90.04 187.211 90.04C186.911 90.04 186.604 90.0967 186.291 90.21C185.978 90.3233 185.688 90.46 185.421 90.62C185.454 90.72 185.478 90.82 185.491 90.92C185.511 91.0133 185.521 91.1133 185.521 91.22V94.75H184.731V91.21C184.731 90.9833 184.684 90.7833 184.591 90.61C184.504 90.43 184.378 90.29 184.211 90.19C184.051 90.09 183.851 90.04 183.611 90.04C183.391 90.04 183.184 90.0633 182.991 90.11C182.804 90.15 182.624 90.21 182.451 90.29C182.284 90.3633 182.108 90.4533 181.921 90.56V94.75H181.131ZM192.654 94.81C192.094 94.81 191.65 94.7267 191.324 94.56C191.004 94.3933 190.774 94.11 190.634 93.71C190.494 93.31 190.424 92.7633 190.424 92.07C190.424 91.3633 190.494 90.8133 190.634 90.42C190.78 90.02 191.017 89.74 191.344 89.58C191.67 89.42 192.11 89.34 192.664 89.34C193.137 89.34 193.52 89.3933 193.814 89.5C194.114 89.6067 194.334 89.79 194.474 90.05C194.62 90.3033 194.694 90.6567 194.694 91.11C194.694 91.4233 194.63 91.6767 194.504 91.87C194.384 92.0567 194.207 92.1933 193.974 92.28C193.747 92.36 193.477 92.4 193.164 92.4H191.214C191.22 92.8333 191.267 93.1833 191.354 93.45C191.44 93.71 191.597 93.9 191.824 94.02C192.057 94.1333 192.397 94.19 192.844 94.19H194.564V94.67C194.257 94.71 193.957 94.7433 193.664 94.77C193.37 94.7967 193.034 94.81 192.654 94.81ZM191.204 91.88H193.104C193.404 91.88 193.624 91.8267 193.764 91.72C193.91 91.6067 193.984 91.4067 193.984 91.12C193.984 90.8133 193.937 90.5767 193.844 90.41C193.757 90.2367 193.617 90.1167 193.424 90.05C193.237 89.9767 192.984 89.94 192.664 89.94C192.29 89.94 191.997 89.9967 191.784 90.11C191.57 90.2167 191.42 90.41 191.334 90.69C191.247 90.97 191.204 91.3667 191.204 91.88ZM196.024 94.75V89.41H196.644L196.814 90C197.067 89.82 197.364 89.6633 197.704 89.53C198.044 89.39 198.397 89.32 198.764 89.32C199.157 89.32 199.474 89.4033 199.714 89.57C199.954 89.7367 200.13 89.9567 200.244 90.23C200.357 90.5033 200.414 90.8 200.414 91.12V94.75H199.624V91.21C199.624 90.9833 199.577 90.7833 199.484 90.61C199.397 90.43 199.27 90.29 199.104 90.19C198.944 90.09 198.744 90.04 198.504 90.04C198.284 90.04 198.077 90.0633 197.884 90.11C197.697 90.15 197.517 90.21 197.344 90.29C197.177 90.3633 197 90.4533 196.814 90.56V94.75H196.024ZM203.673 94.75C203.326 94.75 203.039 94.6933 202.813 94.58C202.586 94.4667 202.419 94.2833 202.313 94.03C202.206 93.7767 202.156 93.44 202.163 93.02L202.193 90.06H201.343V89.55L202.203 89.41L202.333 87.92H202.943V89.41H204.483V90.06H202.943V93.02C202.943 93.2533 202.966 93.44 203.013 93.58C203.066 93.72 203.133 93.8267 203.213 93.9C203.299 93.9733 203.389 94.0267 203.483 94.06C203.576 94.0867 203.666 94.1033 203.753 94.11L204.403 94.17V94.75H203.673ZM0.77 107.75V100.39H3.67C3.91 100.39 4.14333 100.42 4.37 100.48C4.59667 100.533 4.8 100.637 4.98 100.79C5.16667 100.943 5.31333 101.163 5.42 101.45C5.52667 101.73 5.58 102.1 5.58 102.56C5.58 102.96 5.53667 103.29 5.45 103.55C5.36333 103.803 5.25 104.007 5.11 104.16C4.97 104.307 4.81667 104.417 4.65 104.49C4.49 104.557 4.33333 104.603 4.18 104.63L5.69 107.75H4.88L3.45 104.74C3.34333 104.74 3.21 104.737 3.05 104.73C2.89 104.723 2.72 104.72 2.54 104.72C2.36 104.72 2.18333 104.717 2.01 104.71C1.84333 104.703 1.69667 104.7 1.57 104.7V107.75H0.77ZM1.57 104.09H3.55C3.72333 104.09 3.88333 104.07 4.03 104.03C4.17667 103.99 4.30667 103.917 4.42 103.81C4.53333 103.697 4.62333 103.54 4.69 103.34C4.75667 103.14 4.79 102.88 4.79 102.56C4.79 102.253 4.75667 102.007 4.69 101.82C4.62333 101.627 4.53 101.48 4.41 101.38C4.29667 101.273 4.16667 101.203 4.02 101.17C3.87333 101.13 3.71667 101.11 3.55 101.11H1.57V104.09ZM8.78633 107.81C8.22633 107.81 7.78299 107.727 7.45633 107.56C7.13633 107.393 6.90633 107.11 6.76633 106.71C6.62633 106.31 6.55633 105.763 6.55633 105.07C6.55633 104.363 6.62633 103.813 6.76633 103.42C6.91299 103.02 7.14966 102.74 7.47633 102.58C7.80299 102.42 8.24299 102.34 8.79633 102.34C9.26966 102.34 9.653 102.393 9.94633 102.5C10.2463 102.607 10.4663 102.79 10.6063 103.05C10.753 103.303 10.8263 103.657 10.8263 104.11C10.8263 104.423 10.763 104.677 10.6363 104.87C10.5163 105.057 10.3397 105.193 10.1063 105.28C9.87966 105.36 9.60966 105.4 9.29633 105.4H7.34633C7.35299 105.833 7.39966 106.183 7.48633 106.45C7.57299 106.71 7.72966 106.9 7.95633 107.02C8.18966 107.133 8.52966 107.19 8.97633 107.19H10.6963V107.67C10.3897 107.71 10.0897 107.743 9.79633 107.77C9.50299 107.797 9.16633 107.81 8.78633 107.81ZM7.33633 104.88H9.23633C9.53633 104.88 9.75633 104.827 9.89633 104.72C10.043 104.607 10.1163 104.407 10.1163 104.12C10.1163 103.813 10.0697 103.577 9.97633 103.41C9.88966 103.237 9.74966 103.117 9.55633 103.05C9.36966 102.977 9.11633 102.94 8.79633 102.94C8.42299 102.94 8.12966 102.997 7.91633 103.11C7.70299 103.217 7.55299 103.41 7.46633 103.69C7.37966 103.97 7.33633 104.367 7.33633 104.88ZM12.1565 107.75V102.41H12.7765L12.9465 103C13.1998 102.82 13.4965 102.663 13.8365 102.53C14.1765 102.39 14.5298 102.32 14.8965 102.32C15.2898 102.32 15.6065 102.403 15.8465 102.57C16.0865 102.737 16.2632 102.957 16.3765 103.23C16.4898 103.503 16.5465 103.8 16.5465 104.12V107.75H15.7565V104.21C15.7565 103.983 15.7098 103.783 15.6165 103.61C15.5298 103.43 15.4032 103.29 15.2365 103.19C15.0765 103.09 14.8765 103.04 14.6365 103.04C14.4165 103.04 14.2098 103.063 14.0165 103.11C13.8298 103.15 13.6498 103.21 13.4765 103.29C13.3098 103.363 13.1332 103.453 12.9465 103.56V107.75H12.1565ZM18.3254 107.75V103.06H17.5054V102.55L18.3254 102.41V101.8C18.3254 101.42 18.3721 101.103 18.4654 100.85C18.5587 100.59 18.7154 100.393 18.9354 100.26C19.1554 100.127 19.4621 100.06 19.8554 100.06C20.0887 100.06 20.2854 100.073 20.4454 100.1C20.6121 100.12 20.7587 100.14 20.8854 100.16V100.72H19.9954C19.7554 100.72 19.5721 100.76 19.4454 100.84C19.3187 100.913 19.2321 101.03 19.1854 101.19C19.1387 101.343 19.1154 101.533 19.1154 101.76V102.41H20.7754V103.06H19.1154V107.75H18.3254ZM23.837 107.81C23.4504 107.81 23.1104 107.77 22.817 107.69C22.5304 107.61 22.2904 107.47 22.097 107.27C21.9037 107.07 21.7604 106.793 21.667 106.44C21.5737 106.08 21.527 105.623 21.527 105.07C21.527 104.51 21.5737 104.053 21.667 103.7C21.7604 103.34 21.9037 103.063 22.097 102.87C22.2904 102.67 22.5304 102.533 22.817 102.46C23.1104 102.38 23.4504 102.34 23.837 102.34C24.2237 102.34 24.5604 102.38 24.847 102.46C25.1404 102.54 25.3837 102.68 25.577 102.88C25.7704 103.073 25.9137 103.35 26.007 103.71C26.107 104.063 26.157 104.517 26.157 105.07C26.157 105.63 26.107 106.09 26.007 106.45C25.9137 106.803 25.7704 107.08 25.577 107.28C25.3904 107.473 25.1504 107.61 24.857 107.69C24.5637 107.77 24.2237 107.81 23.837 107.81ZM23.837 107.16C24.0837 107.16 24.3004 107.137 24.487 107.09C24.6804 107.043 24.8404 106.95 24.967 106.81C25.0937 106.67 25.1904 106.46 25.257 106.18C25.3237 105.9 25.357 105.53 25.357 105.07C25.357 104.603 25.3237 104.233 25.257 103.96C25.1904 103.687 25.0937 103.48 24.967 103.34C24.8404 103.2 24.6804 103.107 24.487 103.06C24.3004 103.013 24.0837 102.99 23.837 102.99C23.5837 102.99 23.3637 103.013 23.177 103.06C22.9904 103.107 22.8337 103.2 22.707 103.34C22.5804 103.48 22.4837 103.687 22.417 103.96C22.3504 104.233 22.317 104.603 22.317 105.07C22.317 105.53 22.3504 105.9 22.417 106.18C22.4837 106.46 22.5804 106.67 22.707 106.81C22.8337 106.95 22.9904 107.043 23.177 107.09C23.3637 107.137 23.5837 107.16 23.837 107.16ZM27.4885 107.75V102.41H28.0885L28.2785 103.34C28.5185 103.053 28.7852 102.817 29.0785 102.63C29.3785 102.443 29.7218 102.35 30.1085 102.35C30.2018 102.35 30.2885 102.353 30.3685 102.36C30.4552 102.367 30.5352 102.38 30.6085 102.4V103.21C30.5218 103.197 30.4285 103.187 30.3285 103.18C30.2285 103.167 30.1285 103.16 30.0285 103.16C29.7818 103.16 29.5618 103.19 29.3685 103.25C29.1752 103.31 28.9918 103.4 28.8185 103.52C28.6452 103.64 28.4652 103.787 28.2785 103.96V107.75H27.4885ZM33.5496 107.81C33.2496 107.81 32.9696 107.77 32.7096 107.69C32.4496 107.61 32.2229 107.47 32.0296 107.27C31.8363 107.07 31.6863 106.793 31.5796 106.44C31.4729 106.087 31.4196 105.637 31.4196 105.09C31.4196 104.537 31.4696 104.083 31.5696 103.73C31.6696 103.37 31.8129 103.09 31.9996 102.89C32.1863 102.69 32.4129 102.55 32.6796 102.47C32.9463 102.39 33.2429 102.35 33.5696 102.35C33.8363 102.35 34.1263 102.363 34.4396 102.39C34.7529 102.41 35.0529 102.443 35.3396 102.49V102.96H33.7796C33.4396 102.96 33.1529 103.017 32.9196 103.13C32.6863 103.243 32.5096 103.457 32.3896 103.77C32.2696 104.077 32.2096 104.523 32.2096 105.11C32.2096 105.677 32.2729 106.11 32.3996 106.41C32.5263 106.71 32.7063 106.917 32.9396 107.03C33.1729 107.137 33.4563 107.19 33.7896 107.19H35.4196V107.65C35.2663 107.677 35.0863 107.703 34.8796 107.73C34.6796 107.757 34.4663 107.777 34.2396 107.79C34.0129 107.803 33.7829 107.81 33.5496 107.81ZM38.552 107.81C37.992 107.81 37.5486 107.727 37.222 107.56C36.902 107.393 36.672 107.11 36.532 106.71C36.392 106.31 36.322 105.763 36.322 105.07C36.322 104.363 36.392 103.813 36.532 103.42C36.6786 103.02 36.9153 102.74 37.242 102.58C37.5686 102.42 38.0086 102.34 38.562 102.34C39.0353 102.34 39.4186 102.393 39.712 102.5C40.012 102.607 40.232 102.79 40.372 103.05C40.5186 103.303 40.592 103.657 40.592 104.11C40.592 104.423 40.5286 104.677 40.402 104.87C40.282 105.057 40.1053 105.193 39.872 105.28C39.6453 105.36 39.3753 105.4 39.062 105.4H37.112C37.1186 105.833 37.1653 106.183 37.252 106.45C37.3386 106.71 37.4953 106.9 37.722 107.02C37.9553 107.133 38.2953 107.19 38.742 107.19H40.462V107.67C40.1553 107.71 39.8553 107.743 39.562 107.77C39.2686 107.797 38.932 107.81 38.552 107.81ZM37.102 104.88H39.002C39.302 104.88 39.522 104.827 39.662 104.72C39.8086 104.607 39.882 104.407 39.882 104.12C39.882 103.813 39.8353 103.577 39.742 103.41C39.6553 103.237 39.5153 103.117 39.322 103.05C39.1353 102.977 38.882 102.94 38.562 102.94C38.1886 102.94 37.8953 102.997 37.682 103.11C37.4686 103.217 37.3186 103.41 37.232 103.69C37.1453 103.97 37.102 104.367 37.102 104.88ZM38.132 101.44L39.172 100.08H39.842L38.592 101.44H38.132ZM44.6174 110.12V102.41H45.2574L45.4074 102.96C45.5274 102.873 45.6808 102.783 45.8674 102.69C46.0608 102.59 46.2674 102.507 46.4874 102.44C46.7141 102.373 46.9374 102.34 47.1574 102.34C47.5041 102.34 47.7974 102.417 48.0374 102.57C48.2841 102.717 48.4841 102.917 48.6374 103.17C48.7908 103.423 48.9008 103.713 48.9674 104.04C49.0341 104.367 49.0674 104.71 49.0674 105.07C49.0674 105.67 48.9974 106.177 48.8574 106.59C48.7241 106.997 48.5174 107.303 48.2374 107.51C47.9574 107.717 47.5974 107.82 47.1574 107.82C46.8574 107.82 46.5541 107.773 46.2474 107.68C45.9474 107.58 45.6674 107.457 45.4074 107.31V110.12H44.6174ZM46.9374 107.15C47.1908 107.15 47.4174 107.087 47.6174 106.96C47.8174 106.833 47.9774 106.62 48.0974 106.32C48.2174 106.013 48.2774 105.597 48.2774 105.07C48.2774 104.57 48.2141 104.17 48.0874 103.87C47.9608 103.563 47.7974 103.343 47.5974 103.21C47.3974 103.07 47.1774 103 46.9374 103C46.6308 103 46.3474 103.05 46.0874 103.15C45.8341 103.243 45.6074 103.343 45.4074 103.45V106.72C45.6408 106.847 45.8874 106.95 46.1474 107.03C46.4141 107.11 46.6774 107.15 46.9374 107.15ZM51.4387 107.81C51.0453 107.81 50.722 107.693 50.4687 107.46C50.2153 107.227 50.0887 106.897 50.0887 106.47V106.09C50.0887 105.67 50.2253 105.33 50.4987 105.07C50.7787 104.81 51.1987 104.68 51.7587 104.68H53.5687V104.02C53.5687 103.8 53.5287 103.613 53.4487 103.46C53.3753 103.3 53.2387 103.177 53.0387 103.09C52.8453 103.003 52.562 102.96 52.1887 102.96H50.5287V102.49C50.762 102.45 51.032 102.413 51.3387 102.38C51.652 102.347 52.0187 102.33 52.4387 102.33C52.872 102.323 53.232 102.377 53.5187 102.49C53.8053 102.603 54.0153 102.783 54.1487 103.03C54.2887 103.27 54.3587 103.587 54.3587 103.98V107.75H53.7487L53.5987 107.14C53.572 107.167 53.4887 107.213 53.3487 107.28C53.2153 107.347 53.042 107.423 52.8287 107.51C52.622 107.59 52.3953 107.66 52.1487 107.72C51.9087 107.78 51.672 107.81 51.4387 107.81ZM51.7687 107.22C51.8887 107.227 52.0253 107.213 52.1787 107.18C52.332 107.147 52.4887 107.11 52.6487 107.07C52.8087 107.023 52.9553 106.977 53.0887 106.93C53.2287 106.883 53.342 106.843 53.4287 106.81C53.5153 106.777 53.562 106.76 53.5687 106.76V105.08L51.9387 105.15C51.5587 105.163 51.2853 105.257 51.1187 105.43C50.9587 105.603 50.8787 105.827 50.8787 106.1V106.34C50.8787 106.553 50.922 106.727 51.0087 106.86C51.102 106.987 51.2153 107.077 51.3487 107.13C51.4887 107.183 51.6287 107.213 51.7687 107.22ZM55.8479 107.75V102.41H56.4479L56.6379 103.34C56.8779 103.053 57.1446 102.817 57.4379 102.63C57.7379 102.443 58.0812 102.35 58.4679 102.35C58.5612 102.35 58.6479 102.353 58.7279 102.36C58.8146 102.367 58.8946 102.38 58.9679 102.4V103.21C58.8812 103.197 58.7879 103.187 58.6879 103.18C58.5879 103.167 58.4879 103.16 58.3879 103.16C58.1412 103.16 57.9212 103.19 57.7279 103.25C57.5346 103.31 57.3512 103.4 57.1779 103.52C57.0046 103.64 56.8246 103.787 56.6379 103.96V107.75H55.8479ZM62.6743 107.75V100.39H63.4743V107.75H62.6743ZM65.008 107.75V102.41H65.628L65.798 103C66.0514 102.82 66.348 102.663 66.688 102.53C67.028 102.39 67.3814 102.32 67.748 102.32C68.1414 102.32 68.458 102.403 68.698 102.57C68.938 102.737 69.1147 102.957 69.228 103.23C69.3414 103.503 69.398 103.8 69.398 104.12V107.75H68.608V104.21C68.608 103.983 68.5614 103.783 68.468 103.61C68.3814 103.43 68.2547 103.29 68.088 103.19C67.928 103.09 67.728 103.04 67.488 103.04C67.268 103.04 67.0614 103.063 66.868 103.11C66.6814 103.15 66.5014 103.21 66.328 103.29C66.1614 103.363 65.9847 103.453 65.798 103.56V107.75H65.008ZM72.657 107.75C72.3103 107.75 72.0236 107.693 71.797 107.58C71.5703 107.467 71.4036 107.283 71.297 107.03C71.1903 106.777 71.1403 106.44 71.147 106.02L71.177 103.06H70.327V102.55L71.187 102.41L71.317 100.92H71.927V102.41H73.467V103.06H71.927V106.02C71.927 106.253 71.9503 106.44 71.997 106.58C72.0503 106.72 72.117 106.827 72.197 106.9C72.2836 106.973 72.3736 107.027 72.467 107.06C72.5603 107.087 72.6503 107.103 72.737 107.11L73.387 107.17V107.75H72.657ZM76.5988 107.81C76.0388 107.81 75.5955 107.727 75.2688 107.56C74.9488 107.393 74.7188 107.11 74.5788 106.71C74.4388 106.31 74.3688 105.763 74.3688 105.07C74.3688 104.363 74.4388 103.813 74.5788 103.42C74.7255 103.02 74.9622 102.74 75.2888 102.58C75.6155 102.42 76.0555 102.34 76.6088 102.34C77.0822 102.34 77.4655 102.393 77.7588 102.5C78.0588 102.607 78.2788 102.79 78.4188 103.05C78.5655 103.303 78.6388 103.657 78.6388 104.11C78.6388 104.423 78.5755 104.677 78.4488 104.87C78.3288 105.057 78.1522 105.193 77.9188 105.28C77.6922 105.36 77.4222 105.4 77.1088 105.4H75.1588C75.1655 105.833 75.2122 106.183 75.2988 106.45C75.3855 106.71 75.5422 106.9 75.7688 107.02C76.0022 107.133 76.3422 107.19 76.7888 107.19H78.5088V107.67C78.2022 107.71 77.9022 107.743 77.6088 107.77C77.3155 107.797 76.9788 107.81 76.5988 107.81ZM75.1488 104.88H77.0488C77.3488 104.88 77.5688 104.827 77.7088 104.72C77.8555 104.607 77.9288 104.407 77.9288 104.12C77.9288 103.813 77.8822 103.577 77.7888 103.41C77.7022 103.237 77.5622 103.117 77.3688 103.05C77.1822 102.977 76.9288 102.94 76.6088 102.94C76.2355 102.94 75.9422 102.997 75.7288 103.11C75.5155 103.217 75.3655 103.41 75.2788 103.69C75.1922 103.97 75.1488 104.367 75.1488 104.88ZM81.369 107.76C81.0623 107.76 80.8057 107.707 80.599 107.6C80.3923 107.487 80.2357 107.307 80.129 107.06C80.0223 106.807 79.969 106.467 79.969 106.04V100.12H80.759V105.94C80.759 106.26 80.789 106.503 80.849 106.67C80.909 106.83 80.9957 106.943 81.109 107.01C81.2223 107.07 81.3557 107.11 81.509 107.13L82.049 107.19V107.76H81.369ZM84.3084 107.76C84.0018 107.76 83.7451 107.707 83.5384 107.6C83.3318 107.487 83.1751 107.307 83.0684 107.06C82.9618 106.807 82.9084 106.467 82.9084 106.04V100.12H83.6984V105.94C83.6984 106.26 83.7284 106.503 83.7884 106.67C83.8484 106.83 83.9351 106.943 84.0484 107.01C84.1618 107.07 84.2951 107.11 84.4484 107.13L84.9884 107.19V107.76H84.3084ZM85.9679 101.46C85.8612 101.46 85.8079 101.407 85.8079 101.3V100.52C85.8079 100.413 85.8612 100.36 85.9679 100.36H86.5279C86.5812 100.36 86.6179 100.377 86.6379 100.41C86.6646 100.437 86.6779 100.473 86.6779 100.52V101.3C86.6779 101.407 86.6279 101.46 86.5279 101.46H85.9679ZM85.8479 107.75V102.41H86.6379V107.75H85.8479ZM89.4723 110.2C89.1257 110.2 88.819 110.15 88.5523 110.05C88.2923 109.957 88.0857 109.81 87.9323 109.61C87.7857 109.417 87.7123 109.173 87.7123 108.88V108.64C87.7123 108.333 87.7957 108.077 87.9623 107.87C88.1357 107.663 88.3523 107.51 88.6123 107.41C88.8723 107.303 89.139 107.25 89.4123 107.25L89.6123 107.57C89.4123 107.57 89.2257 107.603 89.0523 107.67C88.879 107.73 88.7357 107.83 88.6223 107.97C88.5157 108.11 88.4623 108.29 88.4623 108.51V108.73C88.4623 109.05 88.569 109.277 88.7823 109.41C88.9957 109.55 89.2857 109.62 89.6523 109.62H90.8923C91.2923 109.62 91.6057 109.543 91.8323 109.39C92.0657 109.237 92.1823 108.997 92.1823 108.67V108.47C92.1823 108.283 92.1457 108.123 92.0723 107.99C91.999 107.857 91.8757 107.753 91.7023 107.68C91.5357 107.607 91.299 107.57 90.9923 107.57H89.3823C88.969 107.57 88.6457 107.483 88.4123 107.31C88.1857 107.13 88.0723 106.9 88.0723 106.62C88.0723 106.353 88.149 106.143 88.3023 105.99C88.4623 105.837 88.6857 105.73 88.9723 105.67C88.7257 105.57 88.5323 105.437 88.3923 105.27C88.2523 105.097 88.1557 104.913 88.1023 104.72C88.049 104.52 88.0223 104.32 88.0223 104.12C88.0223 103.707 88.1057 103.373 88.2723 103.12C88.439 102.867 88.6757 102.683 88.9823 102.57C89.2957 102.457 89.6623 102.4 90.0823 102.4H92.9323V102.85L91.7323 102.95C91.819 103.01 91.9157 103.09 92.0223 103.19C92.129 103.283 92.219 103.42 92.2923 103.6C92.3723 103.773 92.4123 104.013 92.4123 104.32C92.4123 104.593 92.3523 104.853 92.2323 105.1C92.119 105.347 91.9257 105.55 91.6523 105.71C91.379 105.863 91.0023 105.94 90.5223 105.94H89.6723C89.3923 105.94 89.169 105.983 89.0023 106.07C88.8423 106.15 88.7623 106.297 88.7623 106.51C88.7623 106.67 88.8223 106.783 88.9423 106.85C89.0623 106.917 89.189 106.95 89.3223 106.95H91.0923C91.5057 106.95 91.8457 107.003 92.1123 107.11C92.3857 107.217 92.589 107.38 92.7223 107.6C92.8623 107.813 92.9323 108.087 92.9323 108.42V108.64C92.9323 109.127 92.7657 109.507 92.4323 109.78C92.1057 110.06 91.6157 110.2 90.9623 110.2H89.4723ZM89.8423 105.33H90.4423C90.7823 105.33 91.039 105.28 91.2123 105.18C91.3923 105.073 91.5157 104.937 91.5823 104.77C91.649 104.603 91.6823 104.423 91.6823 104.23C91.6823 103.93 91.6323 103.693 91.5323 103.52C91.439 103.34 91.3057 103.213 91.1323 103.14C90.959 103.06 90.759 103.02 90.5323 103.02H89.9623C89.5823 103.02 89.2823 103.107 89.0623 103.28C88.849 103.447 88.7423 103.74 88.7423 104.16C88.7423 104.573 88.839 104.873 89.0323 105.06C89.2323 105.24 89.5023 105.33 89.8423 105.33ZM95.9641 107.81C95.4041 107.81 94.9607 107.727 94.6341 107.56C94.3141 107.393 94.0841 107.11 93.9441 106.71C93.8041 106.31 93.7341 105.763 93.7341 105.07C93.7341 104.363 93.8041 103.813 93.9441 103.42C94.0907 103.02 94.3274 102.74 94.6541 102.58C94.9807 102.42 95.4207 102.34 95.9741 102.34C96.4474 102.34 96.8307 102.393 97.1241 102.5C97.4241 102.607 97.6441 102.79 97.7841 103.05C97.9307 103.303 98.0041 103.657 98.0041 104.11C98.0041 104.423 97.9407 104.677 97.8141 104.87C97.6941 105.057 97.5174 105.193 97.2841 105.28C97.0574 105.36 96.7874 105.4 96.4741 105.4H94.5241C94.5307 105.833 94.5774 106.183 94.6641 106.45C94.7507 106.71 94.9074 106.9 95.1341 107.02C95.3674 107.133 95.7074 107.19 96.1541 107.19H97.8741V107.67C97.5674 107.71 97.2674 107.743 96.9741 107.77C96.6807 107.797 96.3441 107.81 95.9641 107.81ZM94.5141 104.88H96.4141C96.7141 104.88 96.9341 104.827 97.0741 104.72C97.2207 104.607 97.2941 104.407 97.2941 104.12C97.2941 103.813 97.2474 103.577 97.1541 103.41C97.0674 103.237 96.9274 103.117 96.7341 103.05C96.5474 102.977 96.2941 102.94 95.9741 102.94C95.6007 102.94 95.3074 102.997 95.0941 103.11C94.8807 103.217 94.7307 103.41 94.6441 103.69C94.5574 103.97 94.5141 104.367 94.5141 104.88ZM99.3342 107.75V102.41H99.9542L100.124 103C100.378 102.82 100.674 102.663 101.014 102.53C101.354 102.39 101.708 102.32 102.074 102.32C102.468 102.32 102.784 102.403 103.024 102.57C103.264 102.737 103.441 102.957 103.554 103.23C103.668 103.503 103.724 103.8 103.724 104.12V107.75H102.934V104.21C102.934 103.983 102.888 103.783 102.794 103.61C102.708 103.43 102.581 103.29 102.414 103.19C102.254 103.09 102.054 103.04 101.814 103.04C101.594 103.04 101.388 103.063 101.194 103.11C101.008 103.15 100.828 103.21 100.654 103.29C100.488 103.363 100.311 103.453 100.124 103.56V107.75H99.3342ZM107.153 107.81C106.853 107.81 106.573 107.77 106.313 107.69C106.053 107.61 105.826 107.47 105.633 107.27C105.44 107.07 105.29 106.793 105.183 106.44C105.076 106.087 105.023 105.637 105.023 105.09C105.023 104.537 105.073 104.083 105.173 103.73C105.273 103.37 105.416 103.09 105.603 102.89C105.79 102.69 106.016 102.55 106.283 102.47C106.55 102.39 106.846 102.35 107.173 102.35C107.44 102.35 107.73 102.363 108.043 102.39C108.356 102.41 108.656 102.443 108.943 102.49V102.96H107.383C107.043 102.96 106.756 103.017 106.523 103.13C106.29 103.243 106.113 103.457 105.993 103.77C105.873 104.077 105.813 104.523 105.813 105.11C105.813 105.677 105.876 106.11 106.003 106.41C106.13 106.71 106.31 106.917 106.543 107.03C106.776 107.137 107.06 107.19 107.393 107.19H109.023V107.65C108.87 107.677 108.69 107.703 108.483 107.73C108.283 107.757 108.07 107.777 107.843 107.79C107.616 107.803 107.386 107.81 107.153 107.81ZM112.155 107.81C111.595 107.81 111.152 107.727 110.825 107.56C110.505 107.393 110.275 107.11 110.135 106.71C109.995 106.31 109.925 105.763 109.925 105.07C109.925 104.363 109.995 103.813 110.135 103.42C110.282 103.02 110.519 102.74 110.845 102.58C111.172 102.42 111.612 102.34 112.165 102.34C112.639 102.34 113.022 102.393 113.315 102.5C113.615 102.607 113.835 102.79 113.975 103.05C114.122 103.303 114.195 103.657 114.195 104.11C114.195 104.423 114.132 104.677 114.005 104.87C113.885 105.057 113.709 105.193 113.475 105.28C113.249 105.36 112.979 105.4 112.665 105.4H110.715C110.722 105.833 110.769 106.183 110.855 106.45C110.942 106.71 111.099 106.9 111.325 107.02C111.559 107.133 111.899 107.19 112.345 107.19H114.065V107.67C113.759 107.71 113.459 107.743 113.165 107.77C112.872 107.797 112.535 107.81 112.155 107.81ZM110.705 104.88H112.605C112.905 104.88 113.125 104.827 113.265 104.72C113.412 104.607 113.485 104.407 113.485 104.12C113.485 103.813 113.439 103.577 113.345 103.41C113.259 103.237 113.119 103.117 112.925 103.05C112.739 102.977 112.485 102.94 112.165 102.94C111.792 102.94 111.499 102.997 111.285 103.11C111.072 103.217 110.922 103.41 110.835 103.69C110.749 103.97 110.705 104.367 110.705 104.88ZM117.801 107.75L120.321 100.39H121.341L123.861 107.75H123.041L122.301 105.65H119.341L118.621 107.75H117.801ZM119.541 104.93H122.101L120.831 101.09L119.541 104.93ZM124.959 107.75V102.41H125.559L125.749 103.34C125.989 103.053 126.256 102.817 126.549 102.63C126.849 102.443 127.193 102.35 127.579 102.35C127.673 102.35 127.759 102.353 127.839 102.36C127.926 102.367 128.006 102.38 128.079 102.4V103.21C127.993 103.197 127.899 103.187 127.799 103.18C127.699 103.167 127.599 103.16 127.499 103.16C127.253 103.16 127.033 103.19 126.839 103.25C126.646 103.31 126.463 103.4 126.289 103.52C126.116 103.64 125.936 103.787 125.749 103.96V107.75H124.959ZM130.948 107.75C130.601 107.75 130.315 107.693 130.088 107.58C129.861 107.467 129.695 107.283 129.588 107.03C129.481 106.777 129.431 106.44 129.438 106.02L129.468 103.06H128.618V102.55L129.478 102.41L129.608 100.92H130.218V102.41H131.758V103.06H130.218V106.02C130.218 106.253 130.241 106.44 130.288 106.58C130.341 106.72 130.408 106.827 130.488 106.9C130.575 106.973 130.665 107.027 130.758 107.06C130.851 107.087 130.941 107.103 131.028 107.11L131.678 107.17V107.75H130.948ZM132.97 101.46C132.863 101.46 132.81 101.407 132.81 101.3V100.52C132.81 100.413 132.863 100.36 132.97 100.36H133.53C133.583 100.36 133.62 100.377 133.64 100.41C133.667 100.437 133.68 100.473 133.68 100.52V101.3C133.68 101.407 133.63 101.46 133.53 101.46H132.97ZM132.85 107.75V102.41H133.64V107.75H132.85ZM135.424 107.75V103.06H134.604V102.55L135.424 102.41V101.7C135.424 101.333 135.468 101.03 135.554 100.79C135.648 100.543 135.801 100.36 136.014 100.24C136.234 100.12 136.528 100.06 136.894 100.06C137.148 100.06 137.364 100.077 137.544 100.11C137.724 100.137 137.884 100.17 138.024 100.21V100.77C137.884 100.757 137.734 100.747 137.574 100.74C137.421 100.727 137.271 100.72 137.124 100.72C136.878 100.72 136.688 100.76 136.554 100.84C136.428 100.92 136.338 101.04 136.284 101.2C136.238 101.36 136.214 101.56 136.214 101.8V102.41H139.374V103.06H136.214V107.75H135.424ZM138.994 107.75V102.41H139.784V107.75H138.994ZM139.114 101.46C139.008 101.46 138.954 101.407 138.954 101.3V100.52C138.954 100.413 139.008 100.36 139.114 100.36H139.684C139.731 100.36 139.764 100.377 139.784 100.41C139.811 100.437 139.824 100.473 139.824 100.52V101.3C139.824 101.407 139.778 101.46 139.684 101.46H139.114ZM143.247 107.81C142.947 107.81 142.667 107.77 142.407 107.69C142.147 107.61 141.92 107.47 141.727 107.27C141.534 107.07 141.384 106.793 141.277 106.44C141.17 106.087 141.117 105.637 141.117 105.09C141.117 104.537 141.167 104.083 141.267 103.73C141.367 103.37 141.51 103.09 141.697 102.89C141.884 102.69 142.11 102.55 142.377 102.47C142.644 102.39 142.94 102.35 143.267 102.35C143.534 102.35 143.824 102.363 144.137 102.39C144.45 102.41 144.75 102.443 145.037 102.49V102.96H143.477C143.137 102.96 142.85 103.017 142.617 103.13C142.384 103.243 142.207 103.457 142.087 103.77C141.967 104.077 141.907 104.523 141.907 105.11C141.907 105.677 141.97 106.11 142.097 106.41C142.224 106.71 142.404 106.917 142.637 107.03C142.87 107.137 143.154 107.19 143.487 107.19H145.117V107.65C144.964 107.677 144.784 107.703 144.577 107.73C144.377 107.757 144.164 107.777 143.937 107.79C143.71 107.803 143.48 107.81 143.247 107.81ZM146.329 101.46C146.223 101.46 146.169 101.407 146.169 101.3V100.52C146.169 100.413 146.223 100.36 146.329 100.36H146.889C146.943 100.36 146.979 100.377 146.999 100.41C147.026 100.437 147.039 100.473 147.039 100.52V101.3C147.039 101.407 146.989 101.46 146.889 101.46H146.329ZM146.209 107.75V102.41H146.999V107.75H146.209ZM150.564 107.81C150.004 107.81 149.56 107.727 149.234 107.56C148.914 107.393 148.684 107.11 148.544 106.71C148.404 106.31 148.334 105.763 148.334 105.07C148.334 104.363 148.404 103.813 148.544 103.42C148.69 103.02 148.927 102.74 149.254 102.58C149.58 102.42 150.02 102.34 150.574 102.34C151.047 102.34 151.43 102.393 151.724 102.5C152.024 102.607 152.244 102.79 152.384 103.05C152.53 103.303 152.604 103.657 152.604 104.11C152.604 104.423 152.54 104.677 152.414 104.87C152.294 105.057 152.117 105.193 151.884 105.28C151.657 105.36 151.387 105.4 151.074 105.4H149.124C149.13 105.833 149.177 106.183 149.264 106.45C149.35 106.71 149.507 106.9 149.734 107.02C149.967 107.133 150.307 107.19 150.754 107.19H152.474V107.67C152.167 107.71 151.867 107.743 151.574 107.77C151.28 107.797 150.944 107.81 150.564 107.81ZM149.114 104.88H151.014C151.314 104.88 151.534 104.827 151.674 104.72C151.82 104.607 151.894 104.407 151.894 104.12C151.894 103.813 151.847 103.577 151.754 103.41C151.667 103.237 151.527 103.117 151.334 103.05C151.147 102.977 150.894 102.94 150.574 102.94C150.2 102.94 149.907 102.997 149.694 103.11C149.48 103.217 149.33 103.41 149.244 103.69C149.157 103.97 149.114 104.367 149.114 104.88ZM155.334 107.76C155.027 107.76 154.77 107.707 154.564 107.6C154.357 107.487 154.2 107.307 154.094 107.06C153.987 106.807 153.934 106.467 153.934 106.04V100.12H154.724V105.94C154.724 106.26 154.754 106.503 154.814 106.67C154.874 106.83 154.96 106.943 155.074 107.01C155.187 107.07 155.32 107.11 155.474 107.13L156.014 107.19V107.76H155.334ZM158.273 107.76C157.967 107.76 157.71 107.707 157.503 107.6C157.297 107.487 157.14 107.307 157.033 107.06C156.927 106.807 156.873 106.467 156.873 106.04V100.12H157.663V105.94C157.663 106.26 157.693 106.503 157.753 106.67C157.813 106.83 157.9 106.943 158.013 107.01C158.127 107.07 158.26 107.11 158.413 107.13L158.953 107.19V107.76H158.273ZM161.853 107.81C161.293 107.81 160.849 107.727 160.523 107.56C160.203 107.393 159.973 107.11 159.833 106.71C159.693 106.31 159.623 105.763 159.623 105.07C159.623 104.363 159.693 103.813 159.833 103.42C159.979 103.02 160.216 102.74 160.543 102.58C160.869 102.42 161.309 102.34 161.863 102.34C162.336 102.34 162.719 102.393 163.013 102.5C163.313 102.607 163.533 102.79 163.673 103.05C163.819 103.303 163.893 103.657 163.893 104.11C163.893 104.423 163.829 104.677 163.703 104.87C163.583 105.057 163.406 105.193 163.173 105.28C162.946 105.36 162.676 105.4 162.363 105.4H160.413C160.419 105.833 160.466 106.183 160.553 106.45C160.639 106.71 160.796 106.9 161.023 107.02C161.256 107.133 161.596 107.19 162.043 107.19H163.763V107.67C163.456 107.71 163.156 107.743 162.863 107.77C162.569 107.797 162.233 107.81 161.853 107.81ZM160.403 104.88H162.303C162.603 104.88 162.823 104.827 162.963 104.72C163.109 104.607 163.183 104.407 163.183 104.12C163.183 103.813 163.136 103.577 163.043 103.41C162.956 103.237 162.816 103.117 162.623 103.05C162.436 102.977 162.183 102.94 161.863 102.94C161.489 102.94 161.196 102.997 160.983 103.11C160.769 103.217 160.619 103.41 160.533 103.69C160.446 103.97 160.403 104.367 160.403 104.88Z" fill="black"/>
</svg>
